<svg xmlns="http://www.w3.org/2000/svg" xmlns:xlink="http://www.w3.org/1999/xlink" width="415" zoomAndPan="magnify" viewBox="0 0 311.25 55.5" height="74" preserveAspectRatio="xMidYMid meet" version="1.0"><defs><g/><clipPath id="d53f598bcc"><path d="M 1.019531 14.648438 L 24.058594 14.648438 L 24.058594 43.636719 L 1.019531 43.636719 Z M 1.019531 14.648438 " clip-rule="nonzero"/></clipPath></defs><g clip-path="url(#d53f598bcc)"><path fill="#1ba0d8" d="M 24.167969 15.074219 C 24.167969 15.308594 23.980469 15.496094 23.746094 15.496094 C 22.695312 15.496094 21.703125 15.90625 20.960938 16.648438 C 20.21875 17.390625 19.808594 18.378906 19.808594 19.429688 L 19.808594 43.386719 C 19.808594 43.558594 19.710938 43.710938 19.554688 43.777344 C 19.5 43.800781 19.445312 43.8125 19.386719 43.8125 C 19.28125 43.8125 19.179688 43.773438 19.097656 43.699219 L 10.410156 35.507812 L 1.726562 43.699219 C 1.605469 43.8125 1.425781 43.84375 1.269531 43.777344 C 1.113281 43.710938 1.011719 43.558594 1.011719 43.386719 L 1.011719 18.765625 C 1.011719 16.5 2.859375 14.652344 5.125 14.652344 L 23.746094 14.652344 C 23.980469 14.652344 24.167969 14.84375 24.167969 15.074219 Z M 24.167969 15.074219 " fill-opacity="1" fill-rule="nonzero"/></g><g fill="#70c6be" fill-opacity="1"><g transform="translate(24.174794, 37.368467)"><g><path d="M 4.640625 0 C 3.929688 0 3.390625 -0.1875 3.015625 -0.5625 C 2.648438 -0.9375 2.46875 -1.472656 2.46875 -2.171875 L 2.46875 -20.359375 C 2.46875 -21.066406 2.648438 -21.601562 3.015625 -21.96875 C 3.390625 -22.34375 3.929688 -22.53125 4.640625 -22.53125 L 12.3125 -22.53125 C 13.882812 -22.53125 15.222656 -22.296875 16.328125 -21.828125 C 17.441406 -21.359375 18.289062 -20.6875 18.875 -19.8125 C 19.457031 -18.945312 19.75 -17.90625 19.75 -16.6875 C 19.75 -15.320312 19.351562 -14.171875 18.5625 -13.234375 C 17.78125 -12.296875 16.707031 -11.664062 15.34375 -11.34375 L 15.34375 -11.828125 C 16.914062 -11.597656 18.140625 -11 19.015625 -10.03125 C 19.890625 -9.070312 20.328125 -7.828125 20.328125 -6.296875 C 20.328125 -4.296875 19.648438 -2.742188 18.296875 -1.640625 C 16.941406 -0.546875 15.0625 0 12.65625 0 Z M 6.390625 -3.09375 L 12.140625 -3.09375 C 13.597656 -3.09375 14.664062 -3.375 15.34375 -3.9375 C 16.03125 -4.507812 16.375 -5.359375 16.375 -6.484375 C 16.375 -7.640625 16.03125 -8.492188 15.34375 -9.046875 C 14.664062 -9.597656 13.597656 -9.875 12.140625 -9.875 L 6.390625 -9.875 Z M 6.390625 -12.984375 L 11.609375 -12.984375 C 13.015625 -12.984375 14.0625 -13.253906 14.75 -13.796875 C 15.445312 -14.335938 15.796875 -15.140625 15.796875 -16.203125 C 15.796875 -17.273438 15.445312 -18.082031 14.75 -18.625 C 14.0625 -19.164062 13.015625 -19.4375 11.609375 -19.4375 L 6.390625 -19.4375 Z M 6.390625 -12.984375 "/></g></g></g><g fill="#70c6be" fill-opacity="1"><g transform="translate(44.313452, 37.368467)"><g><path d="M 7.734375 0.3125 C 6.429688 0.3125 5.351562 0.0703125 4.5 -0.40625 C 3.65625 -0.882812 3.023438 -1.601562 2.609375 -2.5625 C 2.191406 -3.519531 1.984375 -4.710938 1.984375 -6.140625 L 1.984375 -13.875 C 1.984375 -14.53125 2.148438 -15.03125 2.484375 -15.375 C 2.828125 -15.71875 3.320312 -15.890625 3.96875 -15.890625 C 4.601562 -15.890625 5.097656 -15.71875 5.453125 -15.375 C 5.804688 -15.03125 5.984375 -14.53125 5.984375 -13.875 L 5.984375 -6.078125 C 5.984375 -4.960938 6.207031 -4.140625 6.65625 -3.609375 C 7.101562 -3.078125 7.816406 -2.8125 8.796875 -2.8125 C 9.859375 -2.8125 10.726562 -3.175781 11.40625 -3.90625 C 12.09375 -4.644531 12.4375 -5.625 12.4375 -6.84375 L 12.4375 -13.6875 C 12.4375 -14.34375 12.601562 -14.8125 12.9375 -15.09375 C 13.28125 -15.382812 13.773438 -15.585938 14.421875 -15.703125 C 14.890625 -15.785156 15.28125 -15.925781 15.59375 -16.125 C 15.914062 -16.332031 16.15625 -16.617188 16.3125 -16.984375 C 16.476562 -17.359375 16.5625 -17.859375 16.5625 -18.484375 C 16.5625 -19.347656 17.144531 -19.78125 18.3125 -19.78125 C 18.875 -19.78125 19.300781 -19.675781 19.59375 -19.46875 C 19.894531 -19.257812 20.046875 -18.941406 20.046875 -18.515625 C 20.046875 -17.253906 19.722656 -16.195312 19.078125 -15.34375 C 18.441406 -14.488281 17.5625 -13.9375 16.4375 -13.6875 L 16.4375 -1.796875 C 16.4375 -0.429688 15.785156 0.25 14.484375 0.25 C 13.867188 0.25 13.390625 0.078125 13.046875 -0.265625 C 12.703125 -0.617188 12.53125 -1.128906 12.53125 -1.796875 L 12.53125 -4.21875 L 12.984375 -3.265625 C 12.535156 -2.109375 11.859375 -1.222656 10.953125 -0.609375 C 10.046875 0.00390625 8.972656 0.3125 7.734375 0.3125 Z M 7.734375 0.3125 "/></g></g></g><g fill="#70c6be" fill-opacity="1"><g transform="translate(60.967743, 37.368467)"><g><path d="M 9.203125 0.3125 C 7.585938 0.3125 6.179688 -0.015625 4.984375 -0.671875 C 3.796875 -1.328125 2.867188 -2.269531 2.203125 -3.5 C 1.546875 -4.726562 1.21875 -6.171875 1.21875 -7.828125 C 1.21875 -9.085938 1.398438 -10.210938 1.765625 -11.203125 C 2.140625 -12.191406 2.675781 -13.039062 3.375 -13.75 C 4.082031 -14.46875 4.925781 -15.015625 5.90625 -15.390625 C 6.894531 -15.765625 7.992188 -15.953125 9.203125 -15.953125 C 10.828125 -15.953125 12.234375 -15.617188 13.421875 -14.953125 C 14.617188 -14.296875 15.546875 -13.359375 16.203125 -12.140625 C 16.867188 -10.929688 17.203125 -9.492188 17.203125 -7.828125 C 17.203125 -6.578125 17.015625 -5.445312 16.640625 -4.4375 C 16.265625 -3.4375 15.722656 -2.578125 15.015625 -1.859375 C 14.316406 -1.148438 13.476562 -0.609375 12.5 -0.234375 C 11.519531 0.128906 10.421875 0.3125 9.203125 0.3125 Z M 9.203125 -2.71875 C 9.992188 -2.71875 10.6875 -2.910156 11.28125 -3.296875 C 11.882812 -3.679688 12.347656 -4.25 12.671875 -5 C 13.003906 -5.757812 13.171875 -6.703125 13.171875 -7.828125 C 13.171875 -9.535156 12.804688 -10.8125 12.078125 -11.65625 C 11.359375 -12.5 10.398438 -12.921875 9.203125 -12.921875 C 8.421875 -12.921875 7.726562 -12.734375 7.125 -12.359375 C 6.53125 -11.984375 6.066406 -11.414062 5.734375 -10.65625 C 5.410156 -9.90625 5.25 -8.960938 5.25 -7.828125 C 5.25 -6.148438 5.609375 -4.878906 6.328125 -4.015625 C 7.054688 -3.148438 8.015625 -2.71875 9.203125 -2.71875 Z M 13.359375 -13.59375 L 11.09375 -15.03125 L 11.09375 -15.625 C 11.6875 -15.625 12.179688 -15.6875 12.578125 -15.8125 C 12.972656 -15.945312 13.285156 -16.128906 13.515625 -16.359375 C 13.753906 -16.597656 13.925781 -16.894531 14.03125 -17.25 C 14.132812 -17.601562 14.1875 -18.015625 14.1875 -18.484375 C 14.1875 -19.347656 14.773438 -19.78125 15.953125 -19.78125 C 16.503906 -19.78125 16.925781 -19.675781 17.21875 -19.46875 C 17.519531 -19.257812 17.671875 -18.941406 17.671875 -18.515625 C 17.671875 -17.128906 17.28125 -15.992188 16.5 -15.109375 C 15.726562 -14.222656 14.679688 -13.71875 13.359375 -13.59375 Z M 10.703125 -17.90625 C 10.492188 -17.601562 10.238281 -17.429688 9.9375 -17.390625 C 9.632812 -17.347656 9.34375 -17.398438 9.0625 -17.546875 C 8.789062 -17.703125 8.597656 -17.914062 8.484375 -18.1875 C 8.367188 -18.46875 8.394531 -18.78125 8.5625 -19.125 L 11 -23.875 C 11.1875 -24.28125 11.4375 -24.539062 11.75 -24.65625 C 12.070312 -24.78125 12.40625 -24.796875 12.75 -24.703125 C 13.09375 -24.617188 13.382812 -24.457031 13.625 -24.21875 C 13.875 -23.988281 14.023438 -23.707031 14.078125 -23.375 C 14.128906 -23.050781 14.039062 -22.71875 13.8125 -22.375 Z M 10.703125 -17.90625 "/></g></g></g><g fill="#70c6be" fill-opacity="1"><g transform="translate(77.526139, 37.368467)"><g><path d="M 9.296875 0.3125 C 7.660156 0.3125 6.234375 -0.0195312 5.015625 -0.6875 C 3.804688 -1.351562 2.867188 -2.304688 2.203125 -3.546875 C 1.546875 -4.785156 1.21875 -6.234375 1.21875 -7.890625 C 1.21875 -9.148438 1.398438 -10.273438 1.765625 -11.265625 C 2.140625 -12.253906 2.675781 -13.09375 3.375 -13.78125 C 4.082031 -14.476562 4.9375 -15.015625 5.9375 -15.390625 C 6.945312 -15.765625 8.066406 -15.953125 9.296875 -15.953125 C 10.003906 -15.953125 10.765625 -15.851562 11.578125 -15.65625 C 12.398438 -15.46875 13.175781 -15.148438 13.90625 -14.703125 C 14.25 -14.492188 14.472656 -14.238281 14.578125 -13.9375 C 14.679688 -13.632812 14.703125 -13.328125 14.640625 -13.015625 C 14.578125 -12.710938 14.441406 -12.445312 14.234375 -12.21875 C 14.035156 -12 13.785156 -11.863281 13.484375 -11.8125 C 13.191406 -11.757812 12.863281 -11.828125 12.5 -12.015625 C 12.03125 -12.296875 11.550781 -12.503906 11.0625 -12.640625 C 10.570312 -12.773438 10.101562 -12.84375 9.65625 -12.84375 C 8.945312 -12.84375 8.328125 -12.734375 7.796875 -12.515625 C 7.265625 -12.296875 6.8125 -11.976562 6.4375 -11.5625 C 6.0625 -11.144531 5.78125 -10.625 5.59375 -10 C 5.40625 -9.382812 5.3125 -8.671875 5.3125 -7.859375 C 5.3125 -6.285156 5.6875 -5.046875 6.4375 -4.140625 C 7.195312 -3.234375 8.269531 -2.78125 9.65625 -2.78125 C 10.101562 -2.78125 10.566406 -2.84375 11.046875 -2.96875 C 11.523438 -3.101562 12.007812 -3.304688 12.5 -3.578125 C 12.863281 -3.773438 13.1875 -3.835938 13.46875 -3.765625 C 13.757812 -3.703125 14 -3.554688 14.1875 -3.328125 C 14.382812 -3.109375 14.503906 -2.84375 14.546875 -2.53125 C 14.585938 -2.226562 14.550781 -1.925781 14.4375 -1.625 C 14.320312 -1.332031 14.101562 -1.085938 13.78125 -0.890625 C 13.070312 -0.460938 12.320312 -0.15625 11.53125 0.03125 C 10.75 0.21875 10.003906 0.3125 9.296875 0.3125 Z M 9.296875 0.3125 "/></g></g></g><g fill="#70c6be" fill-opacity="1"><g transform="translate(90.760001, 37.368467)"><g/></g></g><g fill="#70c6be" fill-opacity="1"><g transform="translate(97.568566, 37.368467)"><g><path d="M 4.640625 0 C 3.929688 0 3.390625 -0.1875 3.015625 -0.5625 C 2.648438 -0.9375 2.46875 -1.472656 2.46875 -2.171875 L 2.46875 -20.359375 C 2.46875 -21.066406 2.648438 -21.601562 3.015625 -21.96875 C 3.390625 -22.34375 3.929688 -22.53125 4.640625 -22.53125 L 10.84375 -22.53125 C 14.613281 -22.53125 17.523438 -21.5625 19.578125 -19.625 C 21.640625 -17.6875 22.671875 -14.90625 22.671875 -11.28125 C 22.671875 -9.46875 22.40625 -7.863281 21.875 -6.46875 C 21.351562 -5.070312 20.585938 -3.894531 19.578125 -2.9375 C 18.566406 -1.976562 17.332031 -1.25 15.875 -0.75 C 14.414062 -0.25 12.738281 0 10.84375 0 Z M 6.546875 -3.390625 L 10.578125 -3.390625 C 11.898438 -3.390625 13.046875 -3.550781 14.015625 -3.875 C 14.984375 -4.207031 15.789062 -4.695312 16.4375 -5.34375 C 17.09375 -6 17.578125 -6.820312 17.890625 -7.8125 C 18.210938 -8.800781 18.375 -9.957031 18.375 -11.28125 C 18.375 -13.925781 17.722656 -15.898438 16.421875 -17.203125 C 15.128906 -18.503906 13.179688 -19.15625 10.578125 -19.15625 L 6.546875 -19.15625 Z M 1.03125 -9.90625 C 0.507812 -9.90625 0.117188 -10.035156 -0.140625 -10.296875 C -0.410156 -10.566406 -0.546875 -10.9375 -0.546875 -11.40625 C -0.546875 -11.894531 -0.410156 -12.269531 -0.140625 -12.53125 C 0.117188 -12.789062 0.507812 -12.921875 1.03125 -12.921875 L 11.34375 -12.921875 C 11.832031 -12.921875 12.21875 -12.796875 12.5 -12.546875 C 12.78125 -12.304688 12.921875 -11.925781 12.921875 -11.40625 C 12.921875 -10.9375 12.78125 -10.566406 12.5 -10.296875 C 12.21875 -10.035156 11.832031 -9.90625 11.34375 -9.90625 Z M 1.03125 -9.90625 "/></g></g></g><g fill="#70c6be" fill-opacity="1"><g transform="translate(120.07276, 37.368467)"><g><path d="M 7.21875 0.3125 C 6.09375 0.3125 5.085938 0.0976562 4.203125 -0.328125 C 3.316406 -0.765625 2.625 -1.359375 2.125 -2.109375 C 1.625 -2.859375 1.375 -3.703125 1.375 -4.640625 C 1.375 -5.785156 1.671875 -6.691406 2.265625 -7.359375 C 2.867188 -8.035156 3.835938 -8.519531 5.171875 -8.8125 C 6.515625 -9.113281 8.316406 -9.265625 10.578125 -9.265625 L 12.1875 -9.265625 L 12.1875 -6.96875 L 10.609375 -6.96875 C 9.285156 -6.96875 8.226562 -6.898438 7.4375 -6.765625 C 6.65625 -6.640625 6.097656 -6.421875 5.765625 -6.109375 C 5.441406 -5.804688 5.28125 -5.378906 5.28125 -4.828125 C 5.28125 -4.117188 5.523438 -3.539062 6.015625 -3.09375 C 6.503906 -2.644531 7.1875 -2.421875 8.0625 -2.421875 C 8.757812 -2.421875 9.378906 -2.585938 9.921875 -2.921875 C 10.460938 -3.253906 10.894531 -3.707031 11.21875 -4.28125 C 11.539062 -4.851562 11.703125 -5.515625 11.703125 -6.265625 L 11.703125 -9.9375 C 11.703125 -11.007812 11.46875 -11.78125 11 -12.25 C 10.53125 -12.71875 9.738281 -12.953125 8.625 -12.953125 C 8.007812 -12.953125 7.34375 -12.875 6.625 -12.71875 C 5.914062 -12.570312 5.164062 -12.316406 4.375 -11.953125 C 3.96875 -11.765625 3.609375 -11.710938 3.296875 -11.796875 C 2.992188 -11.878906 2.753906 -12.050781 2.578125 -12.3125 C 2.410156 -12.582031 2.328125 -12.878906 2.328125 -13.203125 C 2.328125 -13.523438 2.410156 -13.835938 2.578125 -14.140625 C 2.753906 -14.453125 3.046875 -14.679688 3.453125 -14.828125 C 4.429688 -15.234375 5.375 -15.519531 6.28125 -15.6875 C 7.1875 -15.863281 8.015625 -15.953125 8.765625 -15.953125 C 10.296875 -15.953125 11.554688 -15.71875 12.546875 -15.25 C 13.535156 -14.78125 14.273438 -14.070312 14.765625 -13.125 C 15.253906 -12.175781 15.5 -10.957031 15.5 -9.46875 L 15.5 -1.796875 C 15.5 -1.128906 15.335938 -0.617188 15.015625 -0.265625 C 14.703125 0.078125 14.25 0.25 13.65625 0.25 C 13.050781 0.25 12.582031 0.078125 12.25 -0.265625 C 11.925781 -0.617188 11.765625 -1.128906 11.765625 -1.796875 L 11.765625 -3.328125 L 12.015625 -3.328125 C 11.867188 -2.578125 11.578125 -1.929688 11.140625 -1.390625 C 10.703125 -0.847656 10.148438 -0.425781 9.484375 -0.125 C 8.828125 0.164062 8.070312 0.3125 7.21875 0.3125 Z M 6.328125 -17.84375 C 6.078125 -17.5625 5.804688 -17.398438 5.515625 -17.359375 C 5.222656 -17.316406 4.96875 -17.367188 4.75 -17.515625 C 4.53125 -17.671875 4.382812 -17.878906 4.3125 -18.140625 C 4.25 -18.410156 4.328125 -18.703125 4.546875 -19.015625 L 6.625 -22.125 C 6.9375 -22.59375 7.28125 -22.914062 7.65625 -23.09375 C 8.03125 -23.28125 8.453125 -23.375 8.921875 -23.375 C 9.242188 -23.375 9.539062 -23.332031 9.8125 -23.25 C 10.09375 -23.175781 10.347656 -23.050781 10.578125 -22.875 C 10.816406 -22.695312 11.03125 -22.445312 11.21875 -22.125 L 13.296875 -19.015625 C 13.515625 -18.703125 13.597656 -18.410156 13.546875 -18.140625 C 13.492188 -17.878906 13.359375 -17.671875 13.140625 -17.515625 C 12.929688 -17.367188 12.675781 -17.316406 12.375 -17.359375 C 12.070312 -17.398438 11.796875 -17.5625 11.546875 -17.84375 L 8.921875 -20.75 Z M 13.84375 -20.90625 L 11.25 -24.203125 C 11.019531 -24.492188 10.914062 -24.785156 10.9375 -25.078125 C 10.957031 -25.367188 11.054688 -25.613281 11.234375 -25.8125 C 11.421875 -26.019531 11.648438 -26.160156 11.921875 -26.234375 C 12.203125 -26.304688 12.476562 -26.289062 12.75 -26.1875 C 13.03125 -26.09375 13.269531 -25.878906 13.46875 -25.546875 L 15.4375 -22.03125 C 15.613281 -21.707031 15.664062 -21.421875 15.59375 -21.171875 C 15.53125 -20.929688 15.398438 -20.742188 15.203125 -20.609375 C 15.003906 -20.484375 14.773438 -20.4375 14.515625 -20.46875 C 14.253906 -20.507812 14.03125 -20.65625 13.84375 -20.90625 Z M 13.84375 -20.90625 "/></g></g></g><g fill="#70c6be" fill-opacity="1"><g transform="translate(135.704124, 37.368467)"><g><path d="M 7.734375 0.3125 C 6.429688 0.3125 5.351562 0.0703125 4.5 -0.40625 C 3.65625 -0.882812 3.023438 -1.601562 2.609375 -2.5625 C 2.191406 -3.519531 1.984375 -4.710938 1.984375 -6.140625 L 1.984375 -13.875 C 1.984375 -14.550781 2.148438 -15.054688 2.484375 -15.390625 C 2.828125 -15.722656 3.320312 -15.890625 3.96875 -15.890625 C 4.601562 -15.890625 5.097656 -15.722656 5.453125 -15.390625 C 5.804688 -15.054688 5.984375 -14.550781 5.984375 -13.875 L 5.984375 -6.078125 C 5.984375 -4.960938 6.207031 -4.140625 6.65625 -3.609375 C 7.101562 -3.078125 7.816406 -2.8125 8.796875 -2.8125 C 9.859375 -2.8125 10.726562 -3.175781 11.40625 -3.90625 C 12.09375 -4.644531 12.4375 -5.625 12.4375 -6.84375 L 12.4375 -13.875 C 12.4375 -14.550781 12.601562 -15.054688 12.9375 -15.390625 C 13.28125 -15.722656 13.773438 -15.890625 14.421875 -15.890625 C 15.054688 -15.890625 15.550781 -15.722656 15.90625 -15.390625 C 16.257812 -15.054688 16.4375 -14.550781 16.4375 -13.875 L 16.4375 -1.796875 C 16.4375 -0.429688 15.785156 0.25 14.484375 0.25 C 13.867188 0.25 13.390625 0.078125 13.046875 -0.265625 C 12.703125 -0.617188 12.53125 -1.128906 12.53125 -1.796875 L 12.53125 -4.21875 L 12.984375 -3.265625 C 12.535156 -2.109375 11.859375 -1.222656 10.953125 -0.609375 C 10.046875 0.00390625 8.972656 0.3125 7.734375 0.3125 Z M 7.734375 0.3125 "/></g></g></g><g fill="#70c6be" fill-opacity="1"><g transform="translate(152.358413, 37.368467)"><g/></g></g><g fill="#70c6be" fill-opacity="1"><g transform="translate(159.166978, 37.368467)"><g><path d="M 4.5 0.25 C 3.84375 0.25 3.335938 0.0664062 2.984375 -0.296875 C 2.640625 -0.671875 2.46875 -1.191406 2.46875 -1.859375 L 2.46875 -20.6875 C 2.46875 -21.363281 2.640625 -21.882812 2.984375 -22.25 C 3.335938 -22.613281 3.84375 -22.796875 4.5 -22.796875 C 5.164062 -22.796875 5.671875 -22.613281 6.015625 -22.25 C 6.367188 -21.882812 6.546875 -21.363281 6.546875 -20.6875 L 6.546875 -13.140625 L 18.15625 -13.140625 L 18.15625 -20.6875 C 18.15625 -21.363281 18.332031 -21.882812 18.6875 -22.25 C 19.039062 -22.613281 19.546875 -22.796875 20.203125 -22.796875 C 20.867188 -22.796875 21.375 -22.613281 21.71875 -22.25 C 22.070312 -21.882812 22.25 -21.363281 22.25 -20.6875 L 22.25 -1.859375 C 22.25 -1.191406 22.070312 -0.671875 21.71875 -0.296875 C 21.375 0.0664062 20.867188 0.25 20.203125 0.25 C 19.546875 0.25 19.039062 0.0664062 18.6875 -0.296875 C 18.332031 -0.671875 18.15625 -1.191406 18.15625 -1.859375 L 18.15625 -9.71875 L 6.546875 -9.71875 L 6.546875 -1.859375 C 6.546875 -1.191406 6.375 -0.671875 6.03125 -0.296875 C 5.695312 0.0664062 5.1875 0.25 4.5 0.25 Z M 4.5 0.25 "/></g></g></g><g fill="#70c6be" fill-opacity="1"><g transform="translate(182.022802, 37.368467)"><g><path d="M 9.203125 0.3125 C 7.585938 0.3125 6.179688 -0.015625 4.984375 -0.671875 C 3.796875 -1.328125 2.867188 -2.269531 2.203125 -3.5 C 1.546875 -4.726562 1.21875 -6.171875 1.21875 -7.828125 C 1.21875 -9.085938 1.398438 -10.210938 1.765625 -11.203125 C 2.140625 -12.191406 2.675781 -13.039062 3.375 -13.75 C 4.082031 -14.46875 4.925781 -15.015625 5.90625 -15.390625 C 6.894531 -15.765625 7.992188 -15.953125 9.203125 -15.953125 C 10.828125 -15.953125 12.234375 -15.617188 13.421875 -14.953125 C 14.617188 -14.296875 15.546875 -13.359375 16.203125 -12.140625 C 16.867188 -10.929688 17.203125 -9.492188 17.203125 -7.828125 C 17.203125 -6.578125 17.015625 -5.445312 16.640625 -4.4375 C 16.265625 -3.4375 15.722656 -2.578125 15.015625 -1.859375 C 14.316406 -1.148438 13.476562 -0.609375 12.5 -0.234375 C 11.519531 0.128906 10.421875 0.3125 9.203125 0.3125 Z M 9.203125 -2.71875 C 9.992188 -2.71875 10.6875 -2.910156 11.28125 -3.296875 C 11.882812 -3.679688 12.347656 -4.25 12.671875 -5 C 13.003906 -5.757812 13.171875 -6.703125 13.171875 -7.828125 C 13.171875 -9.535156 12.804688 -10.8125 12.078125 -11.65625 C 11.359375 -12.5 10.398438 -12.921875 9.203125 -12.921875 C 8.421875 -12.921875 7.726562 -12.734375 7.125 -12.359375 C 6.53125 -11.984375 6.066406 -11.414062 5.734375 -10.65625 C 5.410156 -9.90625 5.25 -8.960938 5.25 -7.828125 C 5.25 -6.148438 5.609375 -4.878906 6.328125 -4.015625 C 7.054688 -3.148438 8.015625 -2.71875 9.203125 -2.71875 Z M 9.203125 6.6875 C 8.546875 6.6875 8.035156 6.507812 7.671875 6.15625 C 7.304688 5.800781 7.125 5.304688 7.125 4.671875 C 7.125 4.023438 7.304688 3.53125 7.671875 3.1875 C 8.035156 2.851562 8.546875 2.6875 9.203125 2.6875 C 9.878906 2.6875 10.398438 2.851562 10.765625 3.1875 C 11.128906 3.53125 11.3125 4.023438 11.3125 4.671875 C 11.3125 5.304688 11.128906 5.800781 10.765625 6.15625 C 10.398438 6.507812 9.878906 6.6875 9.203125 6.6875 Z M 9.203125 6.6875 "/></g></g></g><g fill="#70c6be" fill-opacity="1"><g transform="translate(198.581195, 37.368467)"><g><path d="M 9.296875 0.3125 C 7.660156 0.3125 6.234375 -0.0195312 5.015625 -0.6875 C 3.804688 -1.351562 2.867188 -2.304688 2.203125 -3.546875 C 1.546875 -4.785156 1.21875 -6.234375 1.21875 -7.890625 C 1.21875 -9.148438 1.398438 -10.273438 1.765625 -11.265625 C 2.140625 -12.253906 2.675781 -13.09375 3.375 -13.78125 C 4.082031 -14.476562 4.9375 -15.015625 5.9375 -15.390625 C 6.945312 -15.765625 8.066406 -15.953125 9.296875 -15.953125 C 10.003906 -15.953125 10.765625 -15.851562 11.578125 -15.65625 C 12.398438 -15.46875 13.175781 -15.148438 13.90625 -14.703125 C 14.25 -14.492188 14.472656 -14.238281 14.578125 -13.9375 C 14.679688 -13.632812 14.703125 -13.328125 14.640625 -13.015625 C 14.578125 -12.710938 14.441406 -12.445312 14.234375 -12.21875 C 14.035156 -12 13.785156 -11.863281 13.484375 -11.8125 C 13.191406 -11.757812 12.863281 -11.828125 12.5 -12.015625 C 12.03125 -12.296875 11.550781 -12.503906 11.0625 -12.640625 C 10.570312 -12.773438 10.101562 -12.84375 9.65625 -12.84375 C 8.945312 -12.84375 8.328125 -12.734375 7.796875 -12.515625 C 7.265625 -12.296875 6.8125 -11.976562 6.4375 -11.5625 C 6.0625 -11.144531 5.78125 -10.625 5.59375 -10 C 5.40625 -9.382812 5.3125 -8.671875 5.3125 -7.859375 C 5.3125 -6.285156 5.6875 -5.046875 6.4375 -4.140625 C 7.195312 -3.234375 8.269531 -2.78125 9.65625 -2.78125 C 10.101562 -2.78125 10.566406 -2.84375 11.046875 -2.96875 C 11.523438 -3.101562 12.007812 -3.304688 12.5 -3.578125 C 12.863281 -3.773438 13.1875 -3.835938 13.46875 -3.765625 C 13.757812 -3.703125 14 -3.554688 14.1875 -3.328125 C 14.382812 -3.109375 14.503906 -2.84375 14.546875 -2.53125 C 14.585938 -2.226562 14.550781 -1.925781 14.4375 -1.625 C 14.320312 -1.332031 14.101562 -1.085938 13.78125 -0.890625 C 13.070312 -0.460938 12.320312 -0.15625 11.53125 0.03125 C 10.75 0.21875 10.003906 0.3125 9.296875 0.3125 Z M 9.296875 0.3125 "/></g></g></g><g fill="#70c6be" fill-opacity="1"><g transform="translate(211.815057, 37.368467)"><g/></g></g><g fill="#70c6be" fill-opacity="1"><g transform="translate(218.623622, 37.368467)"><g><path d="M 4.5 0.25 C 3.84375 0.25 3.335938 0.0664062 2.984375 -0.296875 C 2.640625 -0.671875 2.46875 -1.191406 2.46875 -1.859375 L 2.46875 -20.453125 C 2.46875 -21.140625 2.644531 -21.65625 3 -22 C 3.363281 -22.351562 3.878906 -22.53125 4.546875 -22.53125 L 12.25 -22.53125 C 14.71875 -22.53125 16.625 -21.910156 17.96875 -20.671875 C 19.3125 -19.441406 19.984375 -17.71875 19.984375 -15.5 C 19.984375 -13.289062 19.3125 -11.5625 17.96875 -10.3125 C 16.625 -9.0625 14.71875 -8.4375 12.25 -8.4375 L 6.546875 -8.4375 L 6.546875 -1.859375 C 6.546875 -1.191406 6.375 -0.671875 6.03125 -0.296875 C 5.695312 0.0664062 5.1875 0.25 4.5 0.25 Z M 6.546875 -11.671875 L 11.609375 -11.671875 C 13.054688 -11.671875 14.148438 -11.992188 14.890625 -12.640625 C 15.640625 -13.296875 16.015625 -14.25 16.015625 -15.5 C 16.015625 -16.757812 15.640625 -17.707031 14.890625 -18.34375 C 14.148438 -18.988281 13.054688 -19.3125 11.609375 -19.3125 L 6.546875 -19.3125 Z M 6.546875 -11.671875 "/></g></g></g><g fill="#70c6be" fill-opacity="1"><g transform="translate(237.61148, 37.368467)"><g><path d="M 4.0625 0.25 C 3.414062 0.25 2.921875 0.078125 2.578125 -0.265625 C 2.242188 -0.617188 2.078125 -1.128906 2.078125 -1.796875 L 2.078125 -20.78125 C 2.078125 -21.4375 2.242188 -21.9375 2.578125 -22.28125 C 2.921875 -22.625 3.414062 -22.796875 4.0625 -22.796875 C 4.695312 -22.796875 5.191406 -22.625 5.546875 -22.28125 C 5.898438 -21.9375 6.078125 -21.4375 6.078125 -20.78125 L 6.078125 -12.5 L 5.625 -12.5 C 6.09375 -13.625 6.820312 -14.476562 7.8125 -15.0625 C 8.800781 -15.65625 9.925781 -15.953125 11.1875 -15.953125 C 12.445312 -15.953125 13.476562 -15.71875 14.28125 -15.25 C 15.09375 -14.78125 15.703125 -14.070312 16.109375 -13.125 C 16.515625 -12.175781 16.71875 -10.976562 16.71875 -9.53125 L 16.71875 -1.796875 C 16.71875 -1.128906 16.546875 -0.617188 16.203125 -0.265625 C 15.867188 0.078125 15.378906 0.25 14.734375 0.25 C 14.097656 0.25 13.601562 0.078125 13.25 -0.265625 C 12.894531 -0.617188 12.71875 -1.128906 12.71875 -1.796875 L 12.71875 -9.328125 C 12.71875 -10.546875 12.488281 -11.429688 12.03125 -11.984375 C 11.570312 -12.535156 10.863281 -12.8125 9.90625 -12.8125 C 8.738281 -12.8125 7.804688 -12.441406 7.109375 -11.703125 C 6.421875 -10.972656 6.078125 -10.003906 6.078125 -8.796875 L 6.078125 -1.796875 C 6.078125 -0.429688 5.40625 0.25 4.0625 0.25 Z M 4.0625 0.25 "/></g></g></g><g fill="#70c6be" fill-opacity="1"><g transform="translate(254.457576, 37.368467)"><g><path d="M 7.21875 0.3125 C 6.09375 0.3125 5.085938 0.0976562 4.203125 -0.328125 C 3.316406 -0.765625 2.625 -1.359375 2.125 -2.109375 C 1.625 -2.859375 1.375 -3.703125 1.375 -4.640625 C 1.375 -5.785156 1.671875 -6.691406 2.265625 -7.359375 C 2.867188 -8.035156 3.835938 -8.519531 5.171875 -8.8125 C 6.515625 -9.113281 8.316406 -9.265625 10.578125 -9.265625 L 12.1875 -9.265625 L 12.1875 -6.96875 L 10.609375 -6.96875 C 9.285156 -6.96875 8.226562 -6.898438 7.4375 -6.765625 C 6.65625 -6.640625 6.097656 -6.421875 5.765625 -6.109375 C 5.441406 -5.804688 5.28125 -5.378906 5.28125 -4.828125 C 5.28125 -4.117188 5.523438 -3.539062 6.015625 -3.09375 C 6.503906 -2.644531 7.1875 -2.421875 8.0625 -2.421875 C 8.757812 -2.421875 9.378906 -2.585938 9.921875 -2.921875 C 10.460938 -3.253906 10.894531 -3.707031 11.21875 -4.28125 C 11.539062 -4.851562 11.703125 -5.515625 11.703125 -6.265625 L 11.703125 -9.9375 C 11.703125 -11.007812 11.46875 -11.78125 11 -12.25 C 10.53125 -12.71875 9.738281 -12.953125 8.625 -12.953125 C 8.007812 -12.953125 7.34375 -12.875 6.625 -12.71875 C 5.914062 -12.570312 5.164062 -12.316406 4.375 -11.953125 C 3.96875 -11.765625 3.609375 -11.710938 3.296875 -11.796875 C 2.992188 -11.878906 2.753906 -12.050781 2.578125 -12.3125 C 2.410156 -12.582031 2.328125 -12.878906 2.328125 -13.203125 C 2.328125 -13.523438 2.410156 -13.835938 2.578125 -14.140625 C 2.753906 -14.453125 3.046875 -14.679688 3.453125 -14.828125 C 4.429688 -15.234375 5.375 -15.519531 6.28125 -15.6875 C 7.1875 -15.863281 8.015625 -15.953125 8.765625 -15.953125 C 10.296875 -15.953125 11.554688 -15.71875 12.546875 -15.25 C 13.535156 -14.78125 14.273438 -14.070312 14.765625 -13.125 C 15.253906 -12.175781 15.5 -10.957031 15.5 -9.46875 L 15.5 -1.796875 C 15.5 -1.128906 15.335938 -0.617188 15.015625 -0.265625 C 14.703125 0.078125 14.25 0.25 13.65625 0.25 C 13.050781 0.25 12.582031 0.078125 12.25 -0.265625 C 11.925781 -0.617188 11.765625 -1.128906 11.765625 -1.796875 L 11.765625 -3.328125 L 12.015625 -3.328125 C 11.867188 -2.578125 11.578125 -1.929688 11.140625 -1.390625 C 10.703125 -0.847656 10.148438 -0.425781 9.484375 -0.125 C 8.828125 0.164062 8.070312 0.3125 7.21875 0.3125 Z M 8.796875 6.6875 C 8.140625 6.6875 7.628906 6.507812 7.265625 6.15625 C 6.898438 5.800781 6.71875 5.304688 6.71875 4.671875 C 6.71875 4.023438 6.898438 3.53125 7.265625 3.1875 C 7.628906 2.851562 8.140625 2.6875 8.796875 2.6875 C 9.472656 2.6875 9.992188 2.851562 10.359375 3.1875 C 10.722656 3.53125 10.90625 4.023438 10.90625 4.671875 C 10.90625 5.304688 10.722656 5.800781 10.359375 6.15625 C 9.992188 6.507812 9.472656 6.6875 8.796875 6.6875 Z M 13.46875 -19.078125 C 13.65625 -18.742188 13.691406 -18.4375 13.578125 -18.15625 C 13.472656 -17.882812 13.289062 -17.675781 13.03125 -17.53125 C 12.78125 -17.394531 12.507812 -17.347656 12.21875 -17.390625 C 11.9375 -17.429688 11.703125 -17.601562 11.515625 -17.90625 L 8.921875 -21.9375 L 6.328125 -17.90625 C 6.140625 -17.601562 5.898438 -17.429688 5.609375 -17.390625 C 5.328125 -17.347656 5.054688 -17.394531 4.796875 -17.53125 C 4.546875 -17.675781 4.363281 -17.882812 4.25 -18.15625 C 4.144531 -18.4375 4.1875 -18.742188 4.375 -19.078125 L 6.6875 -23.3125 C 6.9375 -23.800781 7.25 -24.160156 7.625 -24.390625 C 8 -24.628906 8.429688 -24.75 8.921875 -24.75 C 9.410156 -24.75 9.847656 -24.628906 10.234375 -24.390625 C 10.617188 -24.160156 10.9375 -23.800781 11.1875 -23.3125 Z M 13.46875 -19.078125 "/></g></g></g><g fill="#70c6be" fill-opacity="1"><g transform="translate(270.088946, 37.368467)"><g><path d="M 9.234375 0.3125 C 7.847656 0.3125 6.691406 0.078125 5.765625 -0.390625 C 4.835938 -0.859375 4.148438 -1.539062 3.703125 -2.4375 C 3.253906 -3.34375 3.03125 -4.46875 3.03125 -5.8125 L 3.03125 -12.625 L 1.375 -12.625 C 0.863281 -12.625 0.46875 -12.753906 0.1875 -13.015625 C -0.0820312 -13.285156 -0.21875 -13.65625 -0.21875 -14.125 C -0.21875 -14.613281 -0.0820312 -14.984375 0.1875 -15.234375 C 0.46875 -15.492188 0.863281 -15.625 1.375 -15.625 L 3.03125 -15.625 L 3.03125 -18.546875 C 3.03125 -19.203125 3.207031 -19.703125 3.5625 -20.046875 C 3.914062 -20.390625 4.410156 -20.5625 5.046875 -20.5625 C 5.691406 -20.5625 6.179688 -20.390625 6.515625 -20.046875 C 6.859375 -19.703125 7.03125 -19.203125 7.03125 -18.546875 L 7.03125 -15.625 L 10.421875 -15.625 C 10.929688 -15.625 11.320312 -15.492188 11.59375 -15.234375 C 11.875 -14.984375 12.015625 -14.613281 12.015625 -14.125 C 12.015625 -13.65625 11.875 -13.285156 11.59375 -13.015625 C 11.320312 -12.753906 10.929688 -12.625 10.421875 -12.625 L 7.03125 -12.625 L 7.03125 -6.046875 C 7.03125 -5.015625 7.253906 -4.242188 7.703125 -3.734375 C 8.148438 -3.222656 8.875 -2.96875 9.875 -2.96875 C 10.238281 -2.96875 10.554688 -3 10.828125 -3.0625 C 11.109375 -3.132812 11.359375 -3.179688 11.578125 -3.203125 C 11.828125 -3.222656 12.035156 -3.140625 12.203125 -2.953125 C 12.378906 -2.773438 12.46875 -2.410156 12.46875 -1.859375 C 12.46875 -1.429688 12.394531 -1.050781 12.25 -0.71875 C 12.113281 -0.382812 11.867188 -0.15625 11.515625 -0.03125 C 11.234375 0.0507812 10.867188 0.128906 10.421875 0.203125 C 9.972656 0.273438 9.578125 0.3125 9.234375 0.3125 Z M 9.234375 0.3125 "/></g></g></g></svg>