<svg xmlns="http://www.w3.org/2000/svg" xmlns:xlink="http://www.w3.org/1999/xlink" width="500" zoomAndPan="magnify" viewBox="0 0 375 374.999991" height="500" preserveAspectRatio="xMidYMid meet" version="1.0"><defs><g/><clipPath id="aca67acdd4"><path d="M 52.839844 0 L 349.839844 0 L 349.839844 375 L 52.839844 375 Z M 52.839844 0 " clip-rule="nonzero"/></clipPath></defs><g clip-path="url(#aca67acdd4)"><path fill="#1ba0d8" d="M 350.082031 5.464844 C 350.082031 8.453125 347.636719 10.898438 344.648438 10.898438 C 331.148438 10.898438 318.4375 16.140625 308.902344 25.675781 C 299.367188 35.210938 294.121094 47.898438 294.121094 61.398438 L 294.121094 368.992188 C 294.121094 371.164062 292.847656 373.121094 290.835938 373.988281 C 290.15625 374.289062 289.421875 374.425781 288.691406 374.425781 C 287.332031 374.425781 286 373.90625 284.96875 372.957031 L 173.453125 267.800781 L 61.941406 372.957031 C 60.367188 374.425781 58.058594 374.832031 56.074219 373.988281 C 54.0625 373.121094 52.785156 371.164062 52.785156 368.992188 L 52.785156 52.871094 C 52.785156 23.75 76.476562 0.03125 105.597656 0.03125 L 344.648438 0.03125 C 347.636719 0.03125 350.082031 2.476562 350.082031 5.464844 Z M 350.082031 5.464844 " fill-opacity="1" fill-rule="nonzero"/></g><g fill="#ffffff" fill-opacity="1"><g transform="translate(111.726507, 221.618975)"><g><path d="M 27.140625 0 C 23.023438 0 19.875 -1.085938 17.6875 -3.265625 C 15.5 -5.453125 14.40625 -8.609375 14.40625 -12.734375 L 14.40625 -119.234375 C 14.40625 -123.359375 15.5 -126.507812 17.6875 -128.6875 C 19.875 -130.875 23.023438 -131.96875 27.140625 -131.96875 L 72.0625 -131.96875 C 81.300781 -131.96875 89.164062 -130.59375 95.65625 -127.84375 C 102.144531 -125.101562 107.101562 -121.171875 110.53125 -116.046875 C 113.96875 -110.929688 115.6875 -104.820312 115.6875 -97.71875 C 115.6875 -89.726562 113.375 -82.988281 108.75 -77.5 C 104.132812 -72.007812 97.832031 -68.328125 89.84375 -66.453125 L 89.84375 -69.265625 C 99.082031 -67.890625 106.257812 -64.394531 111.375 -58.78125 C 116.488281 -53.164062 119.046875 -45.863281 119.046875 -36.875 C 119.046875 -25.144531 115.082031 -16.066406 107.15625 -9.640625 C 99.238281 -3.210938 88.226562 0 74.125 0 Z M 37.4375 -18.15625 L 71.125 -18.15625 C 79.613281 -18.15625 85.851562 -19.804688 89.84375 -23.109375 C 93.84375 -26.421875 95.84375 -31.382812 95.84375 -38 C 95.84375 -44.738281 93.84375 -49.726562 89.84375 -52.96875 C 85.851562 -56.21875 79.613281 -57.84375 71.125 -57.84375 L 37.4375 -57.84375 Z M 37.4375 -76 L 67.953125 -76 C 76.179688 -76 82.320312 -77.585938 86.375 -80.765625 C 90.4375 -83.953125 92.46875 -88.664062 92.46875 -94.90625 C 92.46875 -101.144531 90.4375 -105.851562 86.375 -109.03125 C 82.320312 -112.21875 76.179688 -113.8125 67.953125 -113.8125 L 37.4375 -113.8125 Z M 37.4375 -76 "/></g></g></g></svg>